<svg width="2200" height="800" viewBox="0 0 2200 800" fill="none" xmlns="http://www.w3.org/2000/svg">
<path d="M650 645C650.007 654.848 643.546 664.601 630.985 673.7C618.425 682.799 600.011 691.067 576.796 698.032C553.58 704.997 526.018 710.521 495.683 714.291C465.348 718.06 432.835 720 400 720C367.165 720 334.652 718.06 304.317 714.291C273.982 710.521 246.42 704.997 223.204 698.032C199.989 691.067 181.575 682.799 169.015 673.7C156.454 664.601 149.993 654.848 150 645C149.993 635.152 156.454 625.399 169.015 616.3C181.575 607.201 199.989 598.933 223.204 591.968C246.42 585.003 273.982 579.479 304.317 575.709C334.652 571.94 367.165 570 400 570C432.835 570 465.348 571.94 495.683 575.709C526.018 579.479 553.58 585.003 576.796 591.968C600.011 598.933 618.425 607.201 630.985 616.3C643.546 625.399 650.007 635.152 650 645Z" fill="url(#paint0_radial_8_187)"/>
<path d="M187.868 187.868C244.129 131.607 320.435 100 400 100C479.565 100 555.871 131.607 612.132 187.868C668.393 244.129 700 320.435 700 400C700 479.565 668.393 555.871 612.132 612.132C555.871 668.393 479.565 700 400 700C320.435 700 244.129 668.393 187.868 612.132C131.607 555.871 100 479.565 100 400C100 320.435 131.607 244.129 187.868 187.868Z" fill="url(#paint1_radial_8_187)"/>
<g opacity="0.5">
<path fill-rule="evenodd" clip-rule="evenodd" d="M196.353 196.353C250.364 142.343 323.618 112 400 112C476.382 112 549.636 142.343 603.647 196.353C657.657 250.364 688 323.618 688 400C688 476.382 657.657 549.636 603.647 603.647C549.636 657.657 476.382 688 400 688C323.618 688 250.364 657.657 196.353 603.647C142.343 549.636 112 476.382 112 400C112 323.618 142.343 250.364 196.353 196.353ZM192.111 192.111C247.246 136.975 322.026 106 400 106C477.974 106 552.754 136.975 607.889 192.111C663.025 247.246 694 322.026 694 400C694 477.974 663.025 552.754 607.889 607.889C552.754 663.025 477.974 694 400 694C322.026 694 247.246 663.025 192.111 607.889C136.975 552.754 106 477.974 106 400C106 322.026 136.975 247.246 192.111 192.111Z" fill="url(#paint2_linear_8_187)"/>
<path opacity="0.5" d="M189.989 189.989C245.688 134.291 321.231 103 400 103C478.769 103 554.312 134.291 610.011 189.989C665.709 245.688 697 321.231 697 400C697 478.769 665.709 554.312 610.011 610.011C554.312 665.709 478.769 697 400 697C321.231 697 245.688 665.709 189.989 610.011C134.291 554.312 103 478.769 103 400C103 321.231 134.291 245.688 189.989 189.989Z" stroke="#7D1100" stroke-width="6"/>
</g>
<g filter="url(#filter0_dd_8_187)">
<path d="M231.173 449.679C265.511 449.679 293.347 421.843 293.347 387.506C293.347 353.168 265.511 325.332 231.173 325.332C196.836 325.332 169 353.168 169 387.506C169 421.843 196.836 449.679 231.173 449.679Z" fill="white"/>
<path d="M490.127 313.347C524.465 313.347 552.301 285.511 552.301 251.173C552.301 216.836 524.465 189 490.127 189C455.79 189 427.954 216.836 427.954 251.173C427.954 285.511 455.79 313.347 490.127 313.347Z" fill="white"/>
<path d="M371.406 547.55C326.608 537.952 289.186 509.347 268.146 468.781C251.574 476.322 232.922 478.615 214.979 475.305C240.44 537.833 294.434 583.246 360.721 597.454C375.259 600.574 390.082 602.087 404.88 601.993C393.462 586.981 387.103 568.873 386.678 550.008C381.548 549.441 376.441 548.613 371.43 547.526L371.406 547.55Z" fill="white"/>
<path d="M476.133 610.054C510.47 610.054 538.306 582.218 538.306 547.88C538.306 513.543 510.47 485.707 476.133 485.707C441.795 485.707 413.959 513.543 413.959 547.88C413.959 582.218 441.795 610.054 476.133 610.054Z" fill="white"/>
<path d="M562.655 525.044C581.993 500.671 595.61 471.854 602.158 441.24C613.6 387.837 602.914 331.81 572.844 286.374C565.681 303.253 553.53 317.508 537.88 327.318C554.665 358.949 559.771 395.449 552.254 430.555C548.566 447.741 542.065 463.934 532.916 478.733C547.549 490.742 557.88 506.889 562.679 525.068L562.655 525.044Z" fill="white"/>
<path d="M226.374 298.335C227.958 298.241 229.542 298.217 231.102 298.217C237.391 298.217 243.655 298.879 249.872 300.227C260.014 302.401 269.541 306.231 278.264 311.668C306.254 271.409 351.43 247.249 400.365 246.351C400.625 241.646 401.264 236.966 402.233 232.356C405.093 219.046 410.909 206.588 419.23 195.926C341.029 189.733 265.049 230.086 226.351 298.359L226.374 298.335Z" fill="white"/>
</g>
<path opacity="0.162921" d="M1310 545.622C1310 553.199 1288.93 560.465 1251.42 565.823C1213.91 571.181 1163.04 574.191 1110 574.191C1056.96 574.191 1006.09 571.181 968.579 565.823C931.071 560.465 910 553.199 910 545.622C910 538.045 931.071 530.779 968.579 525.421C1006.09 520.063 1056.96 517.053 1110 517.053C1163.04 517.053 1213.91 520.063 1251.42 525.421C1288.93 530.779 1310 538.045 1310 545.622Z" fill="url(#paint3_radial_8_187)"/>
<path fill-rule="evenodd" clip-rule="evenodd" d="M1137 532.083C1137 542.774 1149.93 548.128 1157.49 540.568L1278.51 419.539C1283.2 414.853 1283.2 407.255 1278.51 402.568L1157.49 281.539C1149.93 273.979 1137 279.333 1137 290.024V349C1137 355.627 1131.63 361 1125 361H949C942.373 361 937 366.373 937 373V449C937 455.627 942.373 461 949 461H1125C1131.63 461 1137 466.373 1137 473V532.083Z" fill="url(#paint4_linear_8_187)"/>
<g opacity="0.5">
<mask id="path-13-inside-1_8_187" fill="white">
<path fill-rule="evenodd" clip-rule="evenodd" d="M1137 532.083C1137 542.774 1149.93 548.128 1157.49 540.568L1278.51 419.539C1283.2 414.853 1283.2 407.255 1278.51 402.568L1157.49 281.539C1149.93 273.979 1137 279.333 1137 290.024V349C1137 355.627 1131.63 361 1125 361H949C942.373 361 937 366.373 937 373V449C937 455.627 942.373 461 949 461H1125C1131.63 461 1137 466.373 1137 473V532.083Z"/>
</mask>
<path d="M1157.49 281.539L1153.24 285.781L1157.49 281.539ZM1278.51 419.539L1282.76 423.781L1278.51 419.539ZM1278.51 402.568L1274.27 406.811L1278.51 402.568ZM1274.27 415.296L1153.24 536.326L1161.73 544.811L1282.76 423.781L1274.27 415.296ZM1153.24 285.781L1274.27 406.811L1282.76 398.326L1161.73 277.296L1153.24 285.781ZM1143 349V290.024H1131V349H1143ZM949 367H1125V355H949V367ZM943 449V373H931V449H943ZM1125 455H949V467H1125V455ZM1143 532.083V473H1131V532.083H1143ZM1125 467C1128.31 467 1131 469.686 1131 473H1143C1143 463.059 1134.94 455 1125 455V467ZM931 449C931 458.941 939.059 467 949 467V455C945.686 455 943 452.314 943 449H931ZM949 355C939.059 355 931 363.059 931 373H943C943 369.686 945.686 367 949 367V355ZM1131 349C1131 352.314 1128.31 355 1125 355V367C1134.94 367 1143 358.941 1143 349H1131ZM1161.73 277.296C1150.39 265.957 1131 273.988 1131 290.024H1143C1143 284.679 1149.46 282.002 1153.24 285.781L1161.73 277.296ZM1153.24 536.326C1149.46 540.105 1143 537.428 1143 532.083H1131C1131 548.119 1150.39 556.15 1161.73 544.811L1153.24 536.326ZM1282.76 423.781C1289.79 416.752 1289.79 405.355 1282.76 398.326L1274.27 406.811C1276.62 409.154 1276.62 412.953 1274.27 415.296L1282.76 423.781Z" fill="#206B00" mask="url(#path-13-inside-1_8_187)"/>
</g>
<path opacity="0.5" fill-rule="evenodd" clip-rule="evenodd" d="M1270.03 411.054L1149 532.083L1149 473C1149 459.745 1138.25 449 1125 449H949V373H1125C1138.25 373 1149 362.255 1149 349V290.024L1270.03 411.054ZM1274.27 415.296L1153.24 536.326C1149.46 540.105 1143 537.428 1143 532.083V473C1143 463.059 1134.94 455 1125 455H949C945.686 455 943 452.314 943 449V373C943 369.686 945.686 367 949 367H1125C1134.94 367 1143 358.941 1143 349V290.024C1143 284.679 1149.46 282.002 1153.24 285.781L1274.27 406.811C1276.62 409.154 1276.62 412.953 1274.27 415.296Z" fill="url(#paint5_linear_8_187)"/>
<path d="M2050 655C2050.01 664.848 2043.55 674.601 2030.99 683.7C2018.42 692.799 2000.01 701.067 1976.8 708.032C1953.58 714.997 1926.02 720.521 1895.68 724.291C1865.35 728.06 1832.84 730 1800 730C1767.17 730 1734.65 728.06 1704.32 724.291C1673.98 720.521 1646.42 714.997 1623.2 708.032C1599.99 701.067 1581.58 692.799 1569.01 683.7C1556.45 674.601 1549.99 664.848 1550 655C1549.99 645.152 1556.45 635.399 1569.01 626.3C1581.58 617.201 1599.99 608.933 1623.2 601.968C1646.42 595.003 1673.98 589.479 1704.32 585.709C1734.65 581.94 1767.17 580 1800 580C1832.84 580 1865.35 581.94 1895.68 585.709C1926.02 589.479 1953.58 595.003 1976.8 601.968C2000.01 608.933 2018.42 617.201 2030.99 626.3C2043.55 635.399 2050.01 645.152 2050 655Z" fill="url(#paint6_radial_8_187)"/>
<path d="M1587.87 187.868C1644.13 131.607 1720.44 100 1800 100C1879.56 100 1955.87 131.607 2012.13 187.868C2068.39 244.129 2100 320.435 2100 400C2100 479.565 2068.39 555.871 2012.13 612.132C1955.87 668.393 1879.56 700 1800 700C1720.44 700 1644.13 668.393 1587.87 612.132C1531.61 555.871 1500 479.565 1500 400C1500 320.435 1531.61 244.129 1587.87 187.868Z" fill="url(#paint7_radial_8_187)"/>
<g opacity="0.5">
<path fill-rule="evenodd" clip-rule="evenodd" d="M1596.35 196.353C1650.36 142.343 1723.62 112 1800 112C1876.38 112 1949.64 142.343 2003.65 196.353C2057.66 250.364 2088 323.618 2088 400C2088 476.382 2057.66 549.636 2003.65 603.647C1949.64 657.657 1876.38 688 1800 688C1723.62 688 1650.36 657.657 1596.35 603.647C1542.34 549.636 1512 476.382 1512 400C1512 323.618 1542.34 250.364 1596.35 196.353ZM1592.11 192.111C1647.25 136.975 1722.03 106 1800 106C1877.97 106 1952.75 136.975 2007.89 192.111C2063.03 247.246 2094 322.026 2094 400C2094 477.974 2063.03 552.754 2007.89 607.889C1952.75 663.025 1877.97 694 1800 694C1722.03 694 1647.25 663.025 1592.11 607.889C1536.97 552.754 1506 477.974 1506 400C1506 322.026 1536.97 247.246 1592.11 192.111Z" fill="url(#paint8_linear_8_187)"/>
<path opacity="0.5" d="M1589.99 189.989C1645.69 134.291 1721.23 103 1800 103C1878.77 103 1954.31 134.291 2010.01 189.989C2065.71 245.688 2097 321.231 2097 400C2097 478.769 2065.71 554.312 2010.01 610.011C1954.31 665.709 1878.77 697 1800 697C1721.23 697 1645.69 665.709 1589.99 610.011C1534.29 554.312 1503 478.769 1503 400C1503 321.231 1534.29 245.688 1589.99 189.989Z" stroke="#00537D" stroke-width="6"/>
</g>
<g filter="url(#filter1_dd_8_187)">
<path fill-rule="evenodd" clip-rule="evenodd" d="M1800 160C1932.55 160 2040 267.452 2040 400C2040 532.548 1932.55 640 1800 640C1667.45 640 1560 532.548 1560 400C1560 267.452 1667.45 160 1800 160ZM1580 400C1580 278.497 1678.5 180 1800 180C1900.77 180 1985.72 247.758 2011.78 340.199C1989.34 386.481 1957.41 428.151 1918.53 461.824C1899.85 478 1879.45 492.421 1856.92 502.574C1834.4 512.728 1809.62 518.489 1784.95 517.074C1766.41 516.011 1748.11 510.849 1731.88 501.85C1774.89 478.541 1813.7 447.463 1845.47 410.25C1866.33 385.824 1884.57 358.064 1891.6 326.725C1895.11 311.055 1895.71 294.645 1892.43 278.926C1889.14 263.206 1881.87 248.226 1870.88 236.525C1860.13 225.095 1846.02 216.997 1830.9 212.824C1815.78 208.652 1799.68 208.33 1784.25 211.15C1753.38 216.791 1725.83 234.729 1703.72 257C1664.77 296.256 1640.68 351.646 1645.1 406.775C1647.31 434.34 1656.55 461.425 1672.38 484.1C1675.91 489.161 1679.79 493.983 1683.95 498.551C1660.89 506.621 1637.02 512.364 1612.8 515.6C1592.01 482.005 1580 442.41 1580 400ZM1757.07 236.4C1770.62 228.931 1785.93 224.428 1801.4 224.449C1816.86 224.468 1832.43 229.152 1844.77 238.475C1855.89 246.873 1864.13 258.822 1868.8 271.949C1873.47 285.077 1874.67 299.334 1873.07 313.176C1869.89 340.86 1855.92 366.248 1839.05 388.426C1809.17 427.695 1769.46 459.124 1725.3 481.125C1720.78 483.377 1716.19 485.517 1711.57 487.574C1701.96 479.165 1693.73 469.19 1687.45 458.074C1674.33 434.846 1670 407.254 1672.55 380.699C1675.09 354.144 1684.21 328.551 1696.45 304.85C1710.64 277.368 1729.99 251.338 1757.07 236.4ZM1938.07 474.975C1970.25 444.899 1997.37 409.451 2018.02 370.553C2019.31 380.186 2020 390.014 2020 400C2020 521.503 1921.5 620 1800 620C1731.76 620 1670.78 588.937 1630.42 540.176C1655.33 534.519 1679.67 526.394 1703.02 516.051C1713.23 523.827 1724.51 530.205 1736.5 534.801C1771.02 548.035 1810.21 546.12 1845.15 534.025C1880.08 521.931 1911.07 500.222 1938.07 474.975Z" fill="white"/>
</g>
<defs>
<filter id="filter0_dd_8_187" x="153" y="181" width="469.644" height="453.054" filterUnits="userSpaceOnUse" color-interpolation-filters="sRGB">
<feFlood flood-opacity="0" result="BackgroundImageFix"/>
<feColorMatrix in="SourceAlpha" type="matrix" values="0 0 0 0 0 0 0 0 0 0 0 0 0 0 0 0 0 0 127 0" result="hardAlpha"/>
<feOffset dy="4"/>
<feGaussianBlur stdDeviation="4"/>
<feComposite in2="hardAlpha" operator="out"/>
<feColorMatrix type="matrix" values="0 0 0 0 0 0 0 0 0 0 0 0 0 0 0 0 0 0 0.1 0"/>
<feBlend mode="normal" in2="BackgroundImageFix" result="effect1_dropShadow_8_187"/>
<feColorMatrix in="SourceAlpha" type="matrix" values="0 0 0 0 0 0 0 0 0 0 0 0 0 0 0 0 0 0 127 0" result="hardAlpha"/>
<feOffset dy="8"/>
<feGaussianBlur stdDeviation="8"/>
<feComposite in2="hardAlpha" operator="out"/>
<feColorMatrix type="matrix" values="0 0 0 0 0 0 0 0 0 0 0 0 0 0 0 0 0 0 0.1 0"/>
<feBlend mode="normal" in2="effect1_dropShadow_8_187" result="effect2_dropShadow_8_187"/>
<feBlend mode="normal" in="SourceGraphic" in2="effect2_dropShadow_8_187" result="shape"/>
</filter>
<filter id="filter1_dd_8_187" x="1544" y="152" width="512" height="512" filterUnits="userSpaceOnUse" color-interpolation-filters="sRGB">
<feFlood flood-opacity="0" result="BackgroundImageFix"/>
<feColorMatrix in="SourceAlpha" type="matrix" values="0 0 0 0 0 0 0 0 0 0 0 0 0 0 0 0 0 0 127 0" result="hardAlpha"/>
<feOffset dy="4"/>
<feGaussianBlur stdDeviation="4"/>
<feComposite in2="hardAlpha" operator="out"/>
<feColorMatrix type="matrix" values="0 0 0 0 0 0 0 0 0 0 0 0 0 0 0 0 0 0 0.1 0"/>
<feBlend mode="normal" in2="BackgroundImageFix" result="effect1_dropShadow_8_187"/>
<feColorMatrix in="SourceAlpha" type="matrix" values="0 0 0 0 0 0 0 0 0 0 0 0 0 0 0 0 0 0 127 0" result="hardAlpha"/>
<feOffset dy="8"/>
<feGaussianBlur stdDeviation="8"/>
<feComposite in2="hardAlpha" operator="out"/>
<feColorMatrix type="matrix" values="0 0 0 0 0 0 0 0 0 0 0 0 0 0 0 0 0 0 0.1 0"/>
<feBlend mode="normal" in2="effect1_dropShadow_8_187" result="effect2_dropShadow_8_187"/>
<feBlend mode="normal" in="SourceGraphic" in2="effect2_dropShadow_8_187" result="shape"/>
</filter>
<radialGradient id="paint0_radial_8_187" cx="0" cy="0" r="1" gradientUnits="userSpaceOnUse" gradientTransform="translate(400 645) scale(250 74.9839)">
<stop stop-opacity="0.9"/>
<stop offset="0.5" stop-opacity="0.4"/>
<stop offset="1" stop-opacity="0"/>
</radialGradient>
<radialGradient id="paint1_radial_8_187" cx="0" cy="0" r="1" gradientUnits="userSpaceOnUse" gradientTransform="translate(400.002 -126.829) rotate(90) scale(1463.41 1548.12)">
<stop stop-color="#ECB590"/>
<stop offset="0.26238" stop-color="#E95C20"/>
<stop offset="0.704952" stop-color="#E64D36"/>
<stop offset="1" stop-color="#A02F2B"/>
</radialGradient>
<linearGradient id="paint2_linear_8_187" x1="376.676" y1="100.007" x2="376.676" y2="703.134" gradientUnits="userSpaceOnUse">
<stop stop-color="white"/>
<stop offset="0.424479" stop-color="white" stop-opacity="0.235294"/>
<stop offset="0.820899" stop-color="white" stop-opacity="0.156863"/>
<stop offset="1" stop-color="white" stop-opacity="0.392157"/>
</linearGradient>
<radialGradient id="paint3_radial_8_187" cx="0" cy="0" r="1" gradientUnits="userSpaceOnUse" gradientTransform="translate(1110 545.622) scale(200 28.5686)">
<stop/>
<stop offset="1" stop-opacity="0"/>
</radialGradient>
<linearGradient id="paint4_linear_8_187" x1="1119.23" y1="286.64" x2="1119.23" y2="570.862" gradientUnits="userSpaceOnUse">
<stop stop-color="#9BDB4D"/>
<stop offset="1" stop-color="#68B723"/>
</linearGradient>
<linearGradient id="paint5_linear_8_187" x1="1022.06" y1="306.199" x2="1022.06" y2="539.714" gradientUnits="userSpaceOnUse">
<stop stop-color="white"/>
<stop offset="0.52" stop-color="white" stop-opacity="0.156863"/>
<stop offset="1" stop-color="white" stop-opacity="0.392157"/>
</linearGradient>
<radialGradient id="paint6_radial_8_187" cx="0" cy="0" r="1" gradientUnits="userSpaceOnUse" gradientTransform="translate(1800 655) scale(250 74.9839)">
<stop stop-opacity="0.9"/>
<stop offset="0.5" stop-opacity="0.4"/>
<stop offset="1" stop-opacity="0"/>
</radialGradient>
<radialGradient id="paint7_radial_8_187" cx="0" cy="0" r="1" gradientUnits="userSpaceOnUse" gradientTransform="translate(1800 -126.829) rotate(90) scale(1463.41 1548.12)">
<stop stop-color="#90DBEC"/>
<stop offset="0.26238" stop-color="#42BAEA"/>
<stop offset="0.704952" stop-color="#3689E6"/>
<stop offset="1" stop-color="#2B63A0"/>
</radialGradient>
<linearGradient id="paint8_linear_8_187" x1="1776.68" y1="100.007" x2="1776.68" y2="703.134" gradientUnits="userSpaceOnUse">
<stop stop-color="white"/>
<stop offset="0.424479" stop-color="white" stop-opacity="0.235294"/>
<stop offset="0.820899" stop-color="white" stop-opacity="0.156863"/>
<stop offset="1" stop-color="white" stop-opacity="0.392157"/>
</linearGradient>
</defs>
</svg>
